#!OML:ASF H:\Dans Jumps\Project 1\Capture day 1\Session 1\subject.ASF
:FULLY-SPECIFIED
:DEGREES
311
root -0.0494169 13.9448 -16.1449 29.6536 0.487008 -1.55659
lowerback 26.7245 1.02184 -1.75097
upperback 4.48152 1.10886 2.54904
thorax -9.91909 0.615769 3.49172
lowerneck -20.8651 -0.667521 -3.00183
upperneck -0.992448 -0.174791 0.202357
head 3.36372 -0.0834726 0.595341
rclavicle 2.98177e-015 -2.34566e-014
rhumerus -52.6019 -26.3004 -57.3705
rradius 17.4885
rwrist 42.155
rhand -17.4583 -23.7071
rfingers 7.12502
rthumb 8.79315 -53.5039
lclavicle 2.98177e-015 -2.34566e-014
lhumerus -46.7814 11.6367 75.1691
lradius 8.1724
lwrist -4.28135
lhand -22.503 -3.63738
lfingers 7.12502
lthumb 3.92302 26.3063
rfemur -82.6102 -0.232145 19.9934
rtibia 84.3828
rfoot -32.3733 -14.9132
rtoes 1.35306
lfemur -81.9336 5.42723 -18.8761
ltibia 83.6228
lfoot -26.4137 20.1115
ltoes -10.4891
312
root -0.0603832 13.933 -16.1215 30.0392 0.58364 -1.54288
lowerback 27.0546 1.03756 -1.77196
upperback 4.35695 1.12636 2.57933
thorax -10.2329 0.631367 3.53539
lowerneck -20.9995 -0.689287 -3.05285
upperneck -1.19217 -0.190111 0.24003
head 3.31721 -0.0870982 0.615568
rclavicle 0 2.82274e-014
rhumerus -52.0194 -27.0355 -57.1033
rradius 17.1557
rwrist 43.1839
rhand -17.4911 -23.5314
rfingers 7.12502
rthumb 8.76145 -53.3296
lclavicle 0 2.82274e-014
lhumerus -45.7091 12.065 75.0792
lradius 7.6056
lwrist -4.96133
lhand -22.6156 -3.68563
lfingers 7.12502
lthumb 3.81435 26.26
rfemur -83.0023 -0.151769 19.9814
rtibia 84.5428
rfoot -32.4936 -15.0172
rtoes 1.65002
lfemur -82.3301 5.34399 -18.8082
ltibia 83.7688
lfoot -26.5371 20.2782
ltoes -10.2216
313
root -0.071399 13.9246 -16.0935 30.3923 0.681972 -1.53695
lowerback 27.3508 1.05 -1.78746
upperback 4.24087 1.14144 2.61047
thorax -10.52 0.645348 3.57758
lowerneck -21.1232 -0.702934 -3.07743
upperneck -1.37585 -0.199743 0.251631
head 3.27414 -0.089334 0.622711
rclavicle 5.36719e-015 8.34896e-015
rhumerus -51.3263 -27.7985 -56.8962
rradius 16.8446
rwrist 44.2575
rhand -17.5599 -23.3548
rfingers 7.12502
rthumb 8.69504 -53.1557
lclavicle 5.36719e-015 8.34896e-015
lhumerus -44.5499 12.5103 75.0056
lradius 7.08216
lwrist -5.71134
lhand -22.732 -3.75805
lfingers 7.12502
lthumb 3.70195 26.1895
rfemur -83.3157 -0.0847402 19.9886
rtibia 84.6668
rfoot -32.5948 -15.1293
rtoes 1.95409
lfemur -82.6502 5.27797 -18.7379
ltibia 83.883
lfoot -26.673 20.4158
ltoes -9.96939
314
root -0.082429 13.9199 -16.0606 30.7045 0.782747 -1.53765
lowerback 27.6141 1.05961 -1.79822
upperback 4.13491 1.1546 2.64306
thorax -10.7789 0.657899 3.61924
lowerneck -21.2335 -0.709978 -3.07416
upperneck -1.54166 -0.206207 0.234972
head 3.23467 -0.091609 0.615557
rclavicle 3.77691e-015 8.94531e-015
rhumerus -50.5175 -28.5918 -56.757
rradius 16.5666
rwrist 45.3157
rhand -17.6468 -23.2133
rfingers 7.12502
rthumb 8.61118 -53.0177
lclavicle 3.77691e-015 8.94531e-015
lhumerus -43.3066 12.9686 74.9506
lradius 6.61056
lwrist -6.54109
lhand -22.8169 -3.83848
lfingers 7.12502
lthumb 3.6199 26.1105
rfemur -83.5392 -0.0334285 20.0165
rtibia 84.7527
rfoot -32.6739 -15.2472
rtoes 2.23977
lfemur -82.8838 5.22636 -18.6633
ltibia 83.9625
lfoot -26.8142 20.5139
ltoes -9.74427
